# xmcd CD database file
#
# Track frame offsets:
#	150
#	9600
#	30509
#	53992
#	77022
#	116632
#	133710
#	158173
#	181360
#	191358
#	202947
#	213737
#	229194
#	249349
#
# Disc length: 4329 seconds
#
# Revision: 0
# Processed by: cddbd v1.5.2PL0 Copyright (c) Steve Scherf et al.
# Submitted via: CDex 1.51
#
DISCID=b810e70e
DTITLE=Peter Schneider - Guitar Sketches
DYEAR=2010
DGENRE=Jazz
TTITLE0=Spring Rain
TTITLE1=Keeping The Faith
TTITLE2=Blondy's Blues
TTITLE3=Waht Love Can Do
TTITLE4=Oasis
TTITLE5=Gentle Rain
TTITLE6=Lying in Bed
TTITLE7=Old Souls In Time
TTITLE8=Dancing Flies
TTITLE9=Sea Breeze
TTITLE10=Black Stockings
TTITLE11=That's It
TTITLE12=Midnight Mood
TTITLE13=Savasana
EXTD=YEAR: 2010
EXTT0=
EXTT1=
EXTT2=
EXTT3=
EXTT4=
EXTT5=
EXTT6=
EXTT7=
EXTT8=
EXTT9=
EXTT10=
EXTT11=
EXTT12=
EXTT13=
PLAYORDER=
